<svg width="208" height="41.599795612964236" viewBox="0 0 370 73.99963642690753" class="looka-1j8o68f"><defs id="SvgjsDefs4326"></defs><g id="SvgjsG4327" featurekey="symbolFeature-0" transform="matrix(0.18614942334710585,0,0,0.18614942334710585,-5.654252376859093,-8.654437003820115)" fill="#ffffff"><g xmlns="http://www.w3.org/2000/svg"><path d="M137.64,190.279v131.441c0,29.025,23.614,52.64,52.64,52.64h131.441c29.025,0,52.64-23.614,52.64-52.64V190.279   c0-29.025-23.614-52.64-52.64-52.64H190.279C161.254,137.64,137.64,161.254,137.64,190.279z M354.36,190.279v131.441   c0,17.998-14.642,32.64-32.64,32.64H190.279c-17.998,0-32.64-14.642-32.64-32.64V190.279c0-17.998,14.642-32.64,32.64-32.64   h131.441C339.718,157.64,354.36,172.282,354.36,190.279z"></path><path d="M222.78,106.68v-28.7c0-5.523-4.477-10-10-10s-10,4.477-10,10v28.7c0,5.523,4.477,10,10,10S222.78,112.203,222.78,106.68z"></path><path d="M309.22,106.68v-28.7c0-5.523-4.477-10-10-10s-10,4.477-10,10v28.7c0,5.523,4.477,10,10,10S309.22,112.203,309.22,106.68z"></path><path d="M222.78,405.32c0-5.522-4.477-10-10-10s-10,4.478-10,10v28.7c0,5.522,4.477,10,10,10s10-4.478,10-10V405.32z"></path><path d="M289.22,405.32v28.7c0,5.522,4.477,10,10,10s10-4.478,10-10v-28.7c0-5.522-4.477-10-10-10S289.22,399.798,289.22,405.32z"></path><path d="M434.021,202.78h-28.7c-5.523,0-10,4.477-10,10s4.477,10,10,10h28.7c5.523,0,10-4.477,10-10S439.543,202.78,434.021,202.78   z"></path><path d="M434.021,289.22h-28.7c-5.523,0-10,4.478-10,10s4.477,10,10,10h28.7c5.523,0,10-4.478,10-10S439.543,289.22,434.021,289.22   z"></path><path d="M77.979,222.78h28.7c5.523,0,10-4.477,10-10s-4.477-10-10-10h-28.7c-5.523,0-10,4.477-10,10S72.457,222.78,77.979,222.78z"></path><path d="M77.979,309.22h28.7c5.523,0,10-4.478,10-10s-4.477-10-10-10h-28.7c-5.523,0-10,4.478-10,10S72.457,309.22,77.979,309.22z"></path><path d="M206.64,315.36h98.72c5.523,0,10-4.478,10-10v-98.72c0-5.523-4.477-10-10-10h-98.72c-5.523,0-10,4.477-10,10v98.72   C196.64,310.883,201.117,315.36,206.64,315.36z M216.64,216.64h78.72v78.72h-78.72V216.64z"></path></g></g><g id="SvgjsG4328" featurekey="qafomr-0" transform="matrix(3.183264877535043,0,0,3.183264877535043,88.66302850857144,-9.099589265210259)" fill="#ffffff"><path d="M8.02 15 c0 -1.5 -0.74 -2.32 -2.26 -2.32 c-0.42 0 -0.78 0.06 -1.08 0.18 c-0.56 0.26 -0.94 0.64 -1.12 1.24 c-0.1 0.28 -0.14 0.58 -0.14 0.9 s0.04 0.62 0.14 0.9 c0.16 0.58 0.58 1 1.12 1.22 c0.3 0.14 0.66 0.2 1.08 0.2 c1.52 0 2.26 -0.82 2.26 -2.32 z M8.02 11 l0 -5 l3 0 l0 9 c0 3.18 -2.26 5.1 -5.28 5.1 c-3.08 0 -5.32 -2 -5.32 -5.06 c0 -2.82 2.08 -5.14 4.92 -5.14 c1.06 0 1.98 0.3 2.68 1.1 z M15.719999999999999 13.8 c0.3 0.1 0.64 0.18 1 0.22 c0.36 0.06 0.7 0.08 1.02 0.08 c0.4 0 1.42 -0.08 1.42 -0.66 c0 -0.62 -0.88 -0.64 -1.32 -0.64 c-0.88 0 -1.64 0.2 -2.12 1 z M21.38 16.88 l0 2.8 c-1.12 0.26 -2.24 0.44 -3.4 0.44 c-3.18 0 -5.54 -1.86 -5.54 -5.08 c0 -3.18 2.28 -5.14 5.3 -5.14 c2.06 0 4.44 0.98 4.44 3.32 c0 2.32 -2.52 3.18 -4.46 3.18 c-0.74 0 -1.48 -0.2 -2.16 -0.48 c0.4 1.12 1.6 1.3 2.64 1.3 c0.54 0 1.08 -0.02 1.62 -0.1 c0.5 -0.04 1.08 -0.1 1.56 -0.24 z M26.36 13.8 c0.3 0.1 0.64 0.18 1 0.22 c0.36 0.06 0.7 0.08 1.02 0.08 c0.4 0 1.42 -0.08 1.42 -0.66 c0 -0.62 -0.88 -0.64 -1.32 -0.64 c-0.88 0 -1.64 0.2 -2.12 1 z M32.019999999999996 16.88 l0 2.8 c-1.12 0.26 -2.24 0.44 -3.4 0.44 c-3.18 0 -5.54 -1.86 -5.54 -5.08 c0 -3.18 2.28 -5.14 5.3 -5.14 c2.06 0 4.44 0.98 4.44 3.32 c0 2.32 -2.52 3.18 -4.46 3.18 c-0.74 0 -1.48 -0.2 -2.16 -0.48 c0.4 1.12 1.6 1.3 2.64 1.3 c0.54 0 1.08 -0.02 1.62 -0.1 c0.5 -0.04 1.08 -0.1 1.56 -0.24 z M37.3 15 c0 1.48 0.74 2.32 2.24 2.32 c0.42 0 0.8 -0.06 1.1 -0.2 c0.56 -0.22 0.94 -0.64 1.14 -1.22 c0.08 -0.28 0.12 -0.58 0.12 -0.9 s-0.04 -0.62 -0.12 -0.9 c-0.22 -0.62 -0.56 -0.96 -1.14 -1.24 c-0.3 -0.12 -0.68 -0.18 -1.1 -0.18 c-1.5 0 -2.24 0.84 -2.24 2.32 z M37.3 19 l0 5 l-3 0 l0 -9 c0 -3.2 2.26 -5.1 5.28 -5.1 c3.08 0 5.32 2.02 5.32 5.08 c0 2.84 -2.14 5.12 -4.98 5.12 c-0.58 0 -1.08 -0.1 -1.5 -0.3 c-0.44 -0.18 -0.82 -0.46 -1.12 -0.8 z M54.16 16.7 l0 3 c-1.02 0.34 -2.08 0.44 -3.14 0.44 c-3.1 0 -5.3 -2.06 -5.3 -5.12 c0 -3.18 2.28 -5.12 5.3 -5.12 c1.06 0 2.12 0.1 3.14 0.44 l0 3 c-0.88 -0.46 -1.98 -0.58 -2.96 -0.58 c-0.66 0 -1.46 0.14 -1.92 0.66 c-0.42 0.42 -0.56 1.02 -0.56 1.58 c0 0.32 0.04 0.62 0.14 0.88 c0.08 0.28 0.22 0.52 0.42 0.72 c0.44 0.54 1.26 0.68 1.92 0.68 c0.88 0 2.18 -0.16 2.96 -0.58 z M60.48 17.32 c1.46 0 2.3 -0.86 2.3 -2.32 s-0.84 -2.32 -2.3 -2.32 s-2.3 0.86 -2.3 2.32 s0.84 2.32 2.3 2.32 z M60.48 20.1 c-3.08 0 -5.3 -2.04 -5.3 -5.1 c0 -3.16 2.3 -5.1 5.3 -5.1 c3.1 0 5.3 2.04 5.3 5.1 c0 3.14 -2.32 5.1 -5.3 5.1 z M74.22 15 c0 -1.5 -0.74 -2.32 -2.26 -2.32 c-0.42 0 -0.78 0.06 -1.08 0.18 c-0.56 0.26 -0.94 0.64 -1.12 1.24 c-0.1 0.28 -0.14 0.58 -0.14 0.9 s0.04 0.62 0.14 0.9 c0.16 0.58 0.58 1 1.12 1.22 c0.3 0.14 0.66 0.2 1.08 0.2 c1.52 0 2.26 -0.82 2.26 -2.32 z M74.22 11 l0 -5 l3 0 l0 9 c0 3.18 -2.26 5.1 -5.28 5.1 c-3.08 0 -5.32 -2 -5.32 -5.06 c0 -2.82 2.08 -5.14 4.92 -5.14 c1.06 0 1.98 0.3 2.68 1.1 z M81.92 13.8 c0.3 0.1 0.64 0.18 1 0.22 c0.36 0.06 0.7 0.08 1.02 0.08 c0.4 0 1.42 -0.08 1.42 -0.66 c0 -0.62 -0.88 -0.64 -1.32 -0.64 c-0.88 0 -1.64 0.2 -2.12 1 z M87.58 16.88 l0 2.8 c-1.12 0.26 -2.24 0.44 -3.4 0.44 c-3.18 0 -5.54 -1.86 -5.54 -5.08 c0 -3.18 2.28 -5.14 5.3 -5.14 c2.06 0 4.44 0.98 4.44 3.32 c0 2.32 -2.52 3.18 -4.46 3.18 c-0.74 0 -1.48 -0.2 -2.16 -0.48 c0.4 1.12 1.6 1.3 2.64 1.3 c0.54 0 1.08 -0.02 1.62 -0.1 c0.5 -0.04 1.08 -0.1 1.56 -0.24 z"></path></g></svg>